# Blender 3.5.0
# www.blender.org
mtllib Signpost.mtl
o Pfosten2
v -0.030101 0.002576 -0.154657
v 0.047526 1.206675 -0.023244
v 0.038935 0.000255 -0.137797
v 0.073422 1.206041 -0.017182
v 0.082503 0.000255 -0.079496
v 0.089344 1.204437 0.004070
v 0.078418 0.000255 -0.006820
v 0.087842 1.202612 0.030569
v 0.028607 0.000255 0.046350
v 0.069620 1.201421 0.049914
v -0.044061 0.000255 0.056009
v 0.043202 1.201421 0.053055
v -0.107124 0.000255 0.017582
v 0.020951 1.202612 0.038522
v -0.128549 0.000255 -0.053583
v 0.013278 1.204437 0.013114
v -0.095674 0.001693 -0.121884
v 0.023773 1.206041 -0.011279
v 0.000355 0.303838 -0.158200
v 0.016353 0.537857 -0.152630
v 0.023477 0.827200 -0.105929
v 0.041921 1.075606 -0.048408
v 0.072800 1.075080 -0.041143
v 0.068172 0.827192 -0.095319
v 0.068955 0.537124 -0.140181
v 0.056990 0.302920 -0.144601
v 0.091793 1.073761 -0.015783
v 0.095727 0.827162 -0.058373
v 0.101423 0.535322 -0.096676
v 0.092268 0.301336 -0.097317
v 0.090018 1.072269 0.015750
v 0.093300 0.827137 -0.012591
v 0.098312 0.533320 -0.042433
v 0.088894 0.299835 -0.038383
v 0.068331 1.071313 0.038725
v 0.062133 0.827196 0.020539
v 0.061091 0.532119 -0.002835
v 0.048474 0.299162 0.004758
v 0.036880 1.071339 0.042419
v 0.016839 0.827805 0.026002
v 0.007000 0.533560 0.004565
v -0.010624 0.299753 0.013396
v 0.010356 1.072326 0.025104
v -0.021665 0.828786 0.001270
v -0.039620 0.537862 -0.023366
v -0.062892 0.301256 -0.016462
v 0.001162 1.073810 -0.005148
v -0.035349 0.829272 -0.042226
v -0.055547 0.539636 -0.076294
v -0.080522 0.302711 -0.075359
v 0.013622 1.075102 -0.034190
v -0.017400 0.827793 -0.085002
v -0.032238 0.538384 -0.127887
v -0.052358 0.303782 -0.131835
vn 0.2283 0.1741 -0.9579
vn 0.7986 0.1046 -0.5927
vn 0.9983 0.0101 0.0567
vn 0.7270 -0.0656 0.6835
vn 0.1162 -0.0865 0.9895
vn -0.5473 -0.0416 0.8359
vn -0.9550 0.0477 0.2926
vn 0.0082 0.9976 0.0692
vn -0.9124 0.1381 -0.3853
vn -0.4437 0.1872 -0.8764
vn -0.0000 -1.0000 -0.0000
vn -0.4472 0.0347 -0.8938
vn -0.4467 0.0533 -0.8931
vn -0.4471 0.1532 -0.8813
vn -0.4404 0.2334 -0.8669
vn -0.8964 0.1114 -0.4291
vn -0.8918 0.0923 -0.4430
vn -0.9051 0.1074 -0.4115
vn -0.9025 0.1924 -0.3853
vn -0.9435 0.1708 0.2840
vn -0.9523 0.1021 0.2876
vn -0.9568 0.0327 0.2890
vn -0.9492 0.0963 0.2997
vn -0.5127 0.1705 0.8414
vn -0.4931 0.0738 0.8669
vn -0.5163 -0.0406 0.8555
vn -0.5406 -0.0112 0.8412
vn 0.1307 0.1253 0.9835
vn 0.1448 0.0264 0.9891
vn 0.1331 -0.0787 0.9880
vn 0.1184 -0.0765 0.9900
vn 0.7290 0.0466 0.6829
vn 0.7298 -0.0172 0.6835
vn 0.7283 -0.0569 0.6829
vn 0.7266 -0.0693 0.6836
vn 0.9980 -0.0290 0.0561
vn 0.9977 -0.0393 0.0561
vn 0.9983 0.0119 0.0577
vn 0.9986 0.0068 0.0530
vn 0.7995 -0.0613 -0.5975
vn 0.8007 -0.0296 -0.5984
vn 0.7997 0.0939 -0.5930
vn 0.7963 0.1149 -0.5938
vn 0.2360 -0.0353 -0.9711
vn 0.2336 0.0072 -0.9723
vn 0.2297 0.1496 -0.9617
vn 0.2261 0.2038 -0.9525
vn 0.2285 0.1742 -0.9578
vn 0.7997 0.1048 -0.5912
vn 0.9983 0.0101 0.0573
vn 0.7284 -0.0659 0.6820
vn 0.1176 -0.0862 0.9893
vn -0.5479 -0.0417 0.8355
vn -0.9553 0.0476 0.2919
vn -0.9130 0.1383 -0.3837
vn -0.4459 0.1877 -0.8752
vn -0.0181 -0.9978 -0.0631
vn -0.0140 -0.9995 -0.0277
vn -0.4471 0.0347 -0.8938
vn -0.4527 0.0521 -0.8901
vn -0.4485 0.1535 -0.8805
vn -0.4399 0.2334 -0.8672
vn -0.8900 0.1131 -0.4417
vn -0.9073 0.0847 -0.4119
vn -0.9152 0.1094 -0.3878
vn -0.9049 0.1927 -0.3796
vn -0.9428 0.1703 0.2864
vn -0.9517 0.1015 0.2898
vn -0.9533 0.0334 0.3003
vn -0.9510 0.0963 0.2937
vn -0.4845 0.1760 0.8569
vn -0.5078 0.0707 0.8585
vn -0.5407 -0.0431 0.8401
vn -0.5469 -0.0114 0.8371
vn 0.1447 0.1269 0.9813
vn 0.1362 0.0249 0.9904
vn 0.1184 -0.0761 0.9900
vn 0.1163 -0.0767 0.9903
vn 0.7286 0.0465 0.6834
vn 0.7288 -0.0175 0.6845
vn 0.7271 -0.0568 0.6841
vn 0.7269 -0.0694 0.6832
vn 0.9980 -0.0290 0.0564
vn 0.9977 -0.0392 0.0558
vn 0.9985 0.0117 0.0530
vn 0.9984 0.0068 0.0565
vn 0.7990 -0.0611 -0.5982
vn 0.8005 -0.0297 -0.5986
vn 0.7981 0.0937 -0.5952
vn 0.7980 0.1149 -0.5916
vn 0.2328 -0.0357 -0.9719
vn 0.2304 0.0066 -0.9731
vn 0.2284 0.1494 -0.9620
vn 0.2275 0.2039 -0.9522
vt 1.000000 0.500000
vt 0.750000 0.490000
vt 0.000000 0.500000
vt 1.000000 1.000000
vt 0.250000 0.490000
vt 0.000000 1.000000
vt 0.904269 0.433851
vt 0.888889 0.500000
vt 0.888889 1.000000
vt 0.404269 0.433851
vt 0.986354 0.291676
vt 0.777778 0.500000
vt 0.777778 1.000000
vt 0.486354 0.291676
vt 0.957846 0.130000
vt 0.666667 0.500000
vt 0.666667 1.000000
vt 0.457846 0.130000
vt 0.832085 0.024474
vt 0.555556 0.500000
vt 0.555556 1.000000
vt 0.332085 0.024474
vt 0.667915 0.024474
vt 0.444444 0.500000
vt 0.444444 1.000000
vt 0.167915 0.024474
vt 0.333333 0.500000
vt 0.542154 0.130000
vt 0.333333 1.000000
vt 0.042154 0.130000
vt 0.513646 0.291676
vt 0.222222 0.500000
vt 0.013646 0.291676
vt 0.222222 1.000000
vt 0.595731 0.433851
vt 0.111111 0.500000
vt 0.095731 0.433851
vt 0.111111 1.000000
vt 0.000000 0.600000
vt 1.000000 0.600000
vt 0.000000 0.700000
vt 1.000000 0.700000
vt 0.000000 0.800000
vt 1.000000 0.800000
vt 0.000000 0.900000
vt 1.000000 0.900000
vt 0.888889 0.900000
vt 0.888889 0.800000
vt 0.888889 0.700000
vt 0.888889 0.600000
vt 0.777778 0.900000
vt 0.777778 0.800000
vt 0.777778 0.700000
vt 0.777778 0.600000
vt 0.666667 0.900000
vt 0.666667 0.800000
vt 0.666667 0.700000
vt 0.666667 0.600000
vt 0.555556 0.900000
vt 0.555556 0.800000
vt 0.555556 0.700000
vt 0.555556 0.600000
vt 0.444444 0.900000
vt 0.444444 0.800000
vt 0.444444 0.700000
vt 0.444444 0.600000
vt 0.333333 0.900000
vt 0.333333 0.800000
vt 0.333333 0.700000
vt 0.333333 0.600000
vt 0.222222 0.900000
vt 0.222222 0.800000
vt 0.222222 0.700000
vt 0.222222 0.600000
vt 0.111111 0.900000
vt 0.111111 0.800000
vt 0.111111 0.700000
vt 0.111111 0.600000
s 0
usemtl Holz4
f 2/4/1 23/47/1 22/46/1
f 4/9/2 27/51/2 23/47/2
f 6/13/3 31/55/3 27/51/3
f 8/17/4 35/59/4 31/55/4
f 35/59/5 12/25/5 39/63/5
f 39/63/6 14/29/6 43/67/6
f 43/67/7 16/34/7 47/71/7
f 2/5/8 12/26/8 8/18/8
f 47/71/9 18/38/9 51/75/9
f 51/75/10 2/6/10 22/45/10
f 3/7/11 11/23/11 15/31/11
f 54/78/12 1/3/12 17/36/12
f 53/77/13 19/39/13 54/78/13
f 53/77/14 21/43/14 20/41/14
f 52/76/15 22/45/15 21/43/15
f 50/74/16 17/36/16 15/32/16
f 49/73/17 54/78/17 50/74/17
f 49/73/18 52/76/18 53/77/18
f 48/72/19 51/75/19 52/76/19
f 46/70/20 15/32/20 13/27/20
f 45/69/21 50/74/21 46/70/21
f 45/69/22 48/72/22 49/73/22
f 44/68/23 47/71/23 48/72/23
f 11/24/24 46/70/24 13/27/24
f 42/66/25 45/69/25 46/70/25
f 41/65/26 44/68/26 45/69/26
f 40/64/27 43/67/27 44/68/27
f 9/20/28 42/66/28 11/24/28
f 38/62/29 41/65/29 42/66/29
f 36/60/30 41/65/30 37/61/30
f 36/60/31 39/63/31 40/64/31
f 7/16/32 38/62/32 9/20/32
f 34/58/33 37/61/33 38/62/33
f 32/56/34 37/61/34 33/57/34
f 31/55/35 36/60/35 32/56/35
f 5/12/36 34/58/36 7/16/36
f 30/54/37 33/57/37 34/58/37
f 28/52/38 33/57/38 29/53/38
f 27/51/39 32/56/39 28/52/39
f 3/8/40 30/54/40 5/12/40
f 25/49/41 30/54/41 26/50/41
f 24/48/42 29/53/42 25/49/42
f 23/47/43 28/52/43 24/48/43
f 19/40/44 3/8/44 1/1/44
f 20/42/45 26/50/45 19/40/45
f 21/44/46 25/49/46 20/42/46
f 22/46/47 24/48/47 21/44/47
f 2/4/48 4/9/48 23/47/48
f 4/9/49 6/13/49 27/51/49
f 6/13/50 8/17/50 31/55/50
f 8/17/51 10/21/51 35/59/51
f 35/59/52 10/21/52 12/25/52
f 39/63/53 12/25/53 14/29/53
f 43/67/54 14/29/54 16/34/54
f 6/14/8 4/10/8 2/5/8
f 2/5/8 18/37/8 16/33/8
f 16/33/8 14/30/8 12/26/8
f 12/26/8 10/22/8 8/18/8
f 8/18/8 6/14/8 2/5/8
f 2/5/8 16/33/8 12/26/8
f 47/71/55 16/34/55 18/38/55
f 51/75/56 18/38/56 2/6/56
f 17/35/57 1/2/57 3/7/57
f 3/7/11 5/11/11 7/15/11
f 7/15/11 9/19/11 11/23/11
f 11/23/11 13/28/11 15/31/11
f 15/31/58 17/35/58 3/7/58
f 3/7/11 7/15/11 11/23/11
f 54/78/59 19/39/59 1/3/59
f 53/77/60 20/41/60 19/39/60
f 53/77/61 52/76/61 21/43/61
f 52/76/62 51/75/62 22/45/62
f 50/74/63 54/78/63 17/36/63
f 49/73/64 53/77/64 54/78/64
f 49/73/65 48/72/65 52/76/65
f 48/72/66 47/71/66 51/75/66
f 46/70/67 50/74/67 15/32/67
f 45/69/68 49/73/68 50/74/68
f 45/69/69 44/68/69 48/72/69
f 44/68/70 43/67/70 47/71/70
f 11/24/71 42/66/71 46/70/71
f 42/66/72 41/65/72 45/69/72
f 41/65/73 40/64/73 44/68/73
f 40/64/74 39/63/74 43/67/74
f 9/20/75 38/62/75 42/66/75
f 38/62/76 37/61/76 41/65/76
f 36/60/77 40/64/77 41/65/77
f 36/60/78 35/59/78 39/63/78
f 7/16/79 34/58/79 38/62/79
f 34/58/80 33/57/80 37/61/80
f 32/56/81 36/60/81 37/61/81
f 31/55/82 35/59/82 36/60/82
f 5/12/83 30/54/83 34/58/83
f 30/54/84 29/53/84 33/57/84
f 28/52/85 32/56/85 33/57/85
f 27/51/86 31/55/86 32/56/86
f 3/8/87 26/50/87 30/54/87
f 25/49/88 29/53/88 30/54/88
f 24/48/89 28/52/89 29/53/89
f 23/47/90 27/51/90 28/52/90
f 19/40/91 26/50/91 3/8/91
f 20/42/92 25/49/92 26/50/92
f 21/44/93 24/48/93 25/49/93
f 22/46/94 23/47/94 24/48/94
o Schild_2
v 0.083879 0.702904 0.324708
v 0.099605 1.003767 0.341004
v 0.055988 0.865371 -0.363865
v 0.059699 1.020759 -0.338316
v 0.133662 0.702640 0.322760
v 0.149388 1.003457 0.339084
v 0.086323 0.865155 -0.365198
v 0.090033 1.020597 -0.339528
v 0.063150 0.840476 -0.254918
v 0.079982 0.813903 -0.109334
v 0.088264 0.751220 0.083641
v 0.090341 1.017109 0.120029
v 0.080849 1.028330 -0.077349
v 0.072242 1.038796 -0.218397
v 0.130779 0.750994 0.081981
v 0.120184 0.813672 -0.110952
v 0.098240 0.840299 -0.256560
v 0.106344 1.038576 -0.219757
v 0.120891 1.028087 -0.078887
v 0.133238 1.016847 0.118434
v 0.083545 0.868120 0.290391
v 0.058175 0.944434 -0.410931
v 0.088510 0.944273 -0.412118
v 0.133328 0.867862 0.288443
v 0.104176 0.940744 -0.248109
v 0.118918 0.927288 -0.097341
v 0.132570 0.896184 0.110284
v 0.089849 0.896409 0.111985
v 0.078947 0.927539 -0.095944
v 0.069933 0.940927 -0.246663
vn -0.9964 -0.0470 0.0703
vn -0.0247 0.6892 -0.7241
vn 1.0000 -0.0052 -0.0051
vn 0.0347 -0.3530 0.9350
vn -0.0129 -0.9804 -0.1967
vn 0.0085 0.9982 0.0600
vn 0.0004 0.9889 -0.1485
vn 0.0089 0.9973 0.0733
vn 0.0082 0.9984 0.0564
vn -0.0167 -0.9750 -0.2217
vn -0.0133 -0.9839 -0.1781
vn -0.0179 -0.9512 -0.3082
vn 0.9932 0.0690 -0.0934
vn 0.9953 0.0060 -0.0968
vn 0.9977 -0.0073 -0.0667
vn -0.9994 0.0064 -0.0343
vn -0.9985 0.0089 0.0537
vn -0.9982 0.0062 0.0602
vn -0.9936 -0.0221 0.1108
vn -0.9990 0.0024 0.0436
vn -0.9998 -0.0060 -0.0194
vn 0.9985 -0.0015 -0.0553
vn 0.9892 0.0283 -0.1439
vn 0.9916 -0.0485 -0.1199
vn 0.0393 0.2033 0.9783
vn 0.9999 -0.0005 -0.0121
vn -0.0414 -0.5102 -0.8590
vn -0.9950 0.0607 0.0793
vn -0.9944 -0.0069 0.1051
vn -0.0252 0.6893 -0.7240
vn 0.9930 -0.0885 -0.0781
vn 0.0339 -0.3532 0.9349
vn 0.0083 0.9982 0.0599
vn -0.0006 0.9889 -0.1487
vn 0.0093 0.9973 0.0734
vn -0.0153 -0.9751 -0.2214
vn -0.0128 -0.9839 -0.1780
vn -0.0171 -0.9512 -0.3081
vn 0.9903 0.0179 -0.1376
vn 0.9947 -0.0007 -0.1028
vn 0.9980 -0.0013 -0.0625
vn -0.9939 0.0999 0.0477
vn -0.9988 0.0009 0.0481
vn -0.9981 0.0075 0.0615
vn -0.9960 0.0619 0.0651
vn -0.9986 -0.0150 0.0501
vn -0.9993 0.0173 -0.0326
vn 0.9979 0.0186 -0.0628
vn 0.9936 -0.0502 -0.1016
vn 0.9917 -0.0847 -0.0966
vn 0.9999 -0.0112 -0.0060
vn -0.0364 -0.5090 -0.8600
vn -0.9948 0.0708 0.0727
vt 0.125000 0.750000
vt 0.375000 0.000000
vt 0.375000 1.000000
vt 0.625000 1.000000
vt 0.875000 0.750000
vt 0.625000 0.000000
vt 0.125000 0.500000
vt 0.375000 0.250000
vt 0.625000 0.250000
vt 0.875000 0.500000
vt 0.375000 0.750000
vt 0.625000 0.750000
vt 0.375000 0.500000
vt 0.625000 0.500000
vt 0.125000 0.562500
vt 0.375000 0.187500
vt 0.125000 0.625000
vt 0.375000 0.125000
vt 0.125000 0.687500
vt 0.375000 0.062500
vt 0.875000 0.687500
vt 0.625000 0.062500
vt 0.875000 0.625000
vt 0.625000 0.125000
vt 0.875000 0.562500
vt 0.625000 0.187500
vt 0.375000 0.687500
vt 0.375000 0.625000
vt 0.375000 0.562500
vt 0.625000 0.562500
vt 0.625000 0.625000
vt 0.625000 0.687500
vt 0.500000 0.000000
vt 0.500000 1.000000
vt 0.500000 0.250000
vt 0.500000 0.500000
vt 0.500000 0.750000
vt 0.500000 0.562500
vt 0.500000 0.625000
vt 0.500000 0.687500
vt 0.500000 0.062500
vt 0.500000 0.125000
vt 0.500000 0.187500
s 0
usemtl Wegweiser2
f 84/121/95 58/87/95 76/113/95
f 76/113/96 62/92/96 77/114/96
f 74/110/97 78/115/97 81/118/97
f 78/115/98 56/82/98 75/112/98
f 65/97/99 59/89/99 55/79/99
f 74/110/100 56/83/100 60/90/100
f 62/92/101 68/103/101 72/108/101
f 72/108/102 67/101/102 73/109/102
f 73/109/103 66/99/103 74/110/103
f 61/91/104 63/93/104 57/85/104
f 71/107/105 64/95/105 63/93/105
f 70/106/106 65/97/106 64/95/106
f 62/92/107 79/116/107 77/114/107
f 72/108/108 80/117/108 79/116/108
f 73/109/109 81/118/109 80/117/109
f 75/111/110 66/100/110 82/119/110
f 82/119/111 67/102/111 83/120/111
f 83/120/112 68/104/112 84/121/112
f 83/120/113 63/94/113 64/96/113
f 82/119/114 64/96/114 65/98/114
f 75/111/115 65/98/115 55/80/115
f 70/106/116 81/118/116 69/105/116
f 71/107/117 80/117/117 70/106/117
f 61/91/118 79/116/118 71/107/118
f 59/89/119 75/112/119 55/81/119
f 69/105/120 78/115/120 59/89/120
f 76/113/121 61/91/121 57/86/121
f 84/121/122 57/86/122 63/94/122
f 84/121/123 68/104/123 58/87/123
f 76/113/124 58/87/124 62/92/124
f 74/110/125 60/90/125 78/115/125
f 78/115/126 60/90/126 56/82/126
f 65/97/99 69/105/99 59/89/99
f 74/110/127 66/99/127 56/83/127
f 62/92/128 58/88/128 68/103/128
f 72/108/129 68/103/129 67/101/129
f 73/109/103 67/101/103 66/99/103
f 61/91/130 71/107/130 63/93/130
f 71/107/131 70/106/131 64/95/131
f 70/106/132 69/105/132 65/97/132
f 62/92/133 72/108/133 79/116/133
f 72/108/134 73/109/134 80/117/134
f 73/109/135 74/110/135 81/118/135
f 75/111/136 56/84/136 66/100/136
f 82/119/137 66/100/137 67/102/137
f 83/120/138 67/102/138 68/104/138
f 83/120/139 84/121/139 63/94/139
f 82/119/140 83/120/140 64/96/140
f 75/111/141 82/119/141 65/98/141
f 70/106/142 80/117/142 81/118/142
f 71/107/143 79/116/143 80/117/143
f 61/91/144 77/114/144 79/116/144
f 59/89/119 78/115/119 75/112/119
f 69/105/145 81/118/145 78/115/145
f 76/113/146 77/114/146 61/91/146
f 84/121/147 76/113/147 57/86/147
