# Blender 3.5.0
# www.blender.org
mtllib SkyBoxLightPurple.mtl
o Cube
v 100.000000 100.000000 -100.000000
v 100.000000 -100.000000 -100.000000
v 100.000000 100.000000 100.000000
v 100.000000 -100.000000 100.000000
v -100.000000 100.000000 -100.000000
v -100.000000 -100.000000 -100.000000
v -100.000000 100.000000 100.000000
v -100.000000 -100.000000 100.000000
vn -0.0000 1.0000 -0.0000
vn -0.0000 -0.0000 1.0000
vn -1.0000 -0.0000 -0.0000
vn -0.0000 -1.0000 -0.0000
vn 1.0000 -0.0000 -0.0000
vn -0.0000 -0.0000 -1.0000
vt 0.995000 0.995000
vt 1.000000 1.000000
vt 0.000000 1.000000
vt 1.000000 -0.000000
vt -0.000000 0.000000
vt 0.995000 0.005000
vt 0.997238 0.997238
vt 0.000000 1.000000
vt 0.997238 0.002762
vt 1.000000 1.000000
vt -0.000000 0.000000
vt 0.005000 0.995000
vt 0.000000 1.000000
vt 1.000000 1.000000
vt 1.000000 -0.000000
vt -0.000000 0.000000
vt 0.005000 0.005000
vt 0.002762 0.997238
vt 1.000000 1.000000
vt 1.000000 -0.000000
vt 0.002762 0.002762
vt 0.000000 1.000000
s 0
usemtl back
f 5/14/6 2/5/6 6/15/6
f 5/14/6 1/3/6 2/5/6
usemtl front
f 3/7/2 8/21/2 4/9/2
f 3/7/2 7/18/2 8/21/2
usemtl left
f 1/2/5 4/11/5 2/4/5
f 1/2/5 3/8/5 4/11/5
usemtl down
f 2/4/4 8/22/4 6/16/4
f 2/4/4 4/10/4 8/22/4
usemtl right
f 7/19/3 6/16/3 8/20/3
f 7/19/3 5/13/3 6/16/3
usemtl Up
f 5/12/1 3/6/1 1/1/1
f 5/12/1 7/17/1 3/6/1
